<?xml version="1.0" encoding="UTF-8" standalone="no"?>
<!-- Created with Inkscape (http://www.inkscape.org/) -->

<svg
   width="158.96672mm"
   height="198.82402mm"
   viewBox="0 0 158.96672 198.82402"
   version="1.1"
   id="svg5"
   inkscape:version="1.1 (c68e22c387, 2021-05-23)"
   sodipodi:docname="dibujo.svg"
   xmlns:inkscape="http://www.inkscape.org/namespaces/inkscape"
   xmlns:sodipodi="http://sodipodi.sourceforge.net/DTD/sodipodi-0.dtd"
   xmlns="http://www.w3.org/2000/svg"
   xmlns:svg="http://www.w3.org/2000/svg">
  <sodipodi:namedview
     id="namedview7"
     pagecolor="#ffffff"
     bordercolor="#666666"
     borderopacity="1.0"
     inkscape:pageshadow="2"
     inkscape:pageopacity="0.0"
     inkscape:pagecheckerboard="0"
     inkscape:document-units="mm"
     showgrid="false"
     fit-margin-top="0"
     fit-margin-left="0"
     fit-margin-right="0"
     fit-margin-bottom="0"
     inkscape:zoom="0.72337262"
     inkscape:cx="302.74854"
     inkscape:cy="213.58287"
     inkscape:window-width="1920"
     inkscape:window-height="1001"
     inkscape:window-x="-9"
     inkscape:window-y="-9"
     inkscape:window-maximized="1"
     inkscape:current-layer="g1381" />
  <defs
     id="defs2" />
  <g
     inkscape:label="Capa 1"
     inkscape:groupmode="layer"
     id="layer1"
     transform="translate(-24.759244,-33.725923)">
    <g
       id="g1381"
       transform="matrix(1.0946462,0,0,1.0946462,-7.6049624,-15.996266)">
      <path
         style="fill:#91c9e0;stroke-width:0.263532"
         d="m 80.478915,226.80238 c -9.672792,-1.58842 -17.314412,-8.22752 -19.35389,-16.81482 -0.835421,-3.51757 -1.769793,-9.40541 -2.250693,-14.18252 -0.240755,-2.39155 -0.542962,-4.6151 -0.671573,-4.94122 -0.216594,-0.54921 -0.396921,-0.59294 -2.444988,-0.59294 -4.426275,0 -9.32746,-1.25226 -13.742822,-3.51131 -4.721098,-2.41547 -8.217689,-6.5947 -9.85043,-11.77352 -2.02476,-6.42224 -2.990605,-19.84997 -2.45077,-34.07199 0.721966,-19.02026 2.806885,-33.90399 5.526636,-39.4533 1.948093,-3.974836 6.145211,-7.186503 11.046288,-8.452703 1.831257,-0.473107 2.535213,-0.51094 6.542665,-0.351627 4.989126,0.198341 5.804466,0.02187 6.548692,-1.417289 0.458221,-0.8861 0.951372,-3.44955 0.951372,-4.945318 0,-1.481258 0.640047,-5.090643 1.59138,-8.97418 4.586921,-18.724789 13.222875,-27.798642 29.055984,-30.529317 9.245204,-1.594485 24.094644,-1.833105 31.809604,-0.511158 7.41108,1.269879 13.78423,4.036813 19.40399,8.424342 2.99811,2.340717 5.24244,4.872326 9.47744,10.690552 4.69379,6.448548 6.13887,8.04942 11.45008,12.684546 6.03827,5.269628 8.0961,7.868961 9.98578,12.613519 1.29565,3.253061 1.67704,5.273939 1.68415,8.923916 0.008,3.889927 -0.42064,5.933497 -1.90881,9.109157 -1.5078,3.21757 -2.40284,4.40939 -5.78901,7.70852 l -3.06095,2.98228 0.0314,2.68365 c 0.0173,1.47601 0.12174,9.38394 0.23213,17.57318 0.2168,16.08342 0.10554,19.1685 -1.0739,29.77906 -1.1788,10.60489 -3.40725,26.0805 -5.27475,36.63088 -1.09423,6.18187 -1.89668,8.17924 -4.18263,10.41105 -2.97048,2.90011 -7.1862,4.31779 -13.49847,4.53931 -6.17406,0.21667 -12.59784,-0.80592 -16.39194,-2.60941 -2.47014,-1.17416 -5.18118,-3.93256 -6.43721,-6.54967 -1.57945,-3.29098 -2.01718,-5.65988 -2.2654,-12.2597 -0.28768,-7.64881 -0.32369,-7.72079 -4.41851,-8.8311 -1.18478,-0.32126 -2.32666,-0.5179 -2.53752,-0.43699 -0.32161,0.12341 -0.40555,1.62599 -0.52095,9.32535 -0.15799,10.53996 -0.43041,12.49514 -2.27733,16.34423 -2.97106,6.19185 -11.013834,10.67224 -19.773692,11.01534 -1.859183,0.0728 -3.866579,-0.0162 -5.161383,-0.2288 z"
         id="path1387" />
      <path
         style="fill:#dc2026;stroke-width:0.263532"
         d="m 79.176007,226.2009 c -7.037332,-1.50778 -13.409354,-6.27678 -16.239345,-12.15399 -1.480533,-3.07471 -2.711626,-9.13393 -3.705361,-18.2371 -0.308822,-2.829 -0.676962,-5.29187 -0.818091,-5.47305 -0.151452,-0.19443 -0.867124,-0.32941 -1.746548,-0.32941 -6.196584,0 -13.754056,-2.42654 -17.808691,-5.71798 -3.194318,-2.59305 -5.638349,-6.49835 -6.724443,-10.74494 -0.717091,-2.8038 -1.498931,-8.36947 -1.869219,-13.30638 -0.410511,-5.4732 -0.166939,-24.33232 0.398352,-30.84295 1.241186,-14.29519 2.914044,-23.72992 4.940143,-27.86182 1.753886,-3.576771 5.46968,-6.514406 10.1006,-7.985339 1.665709,-0.529084 2.343394,-0.582544 6.983585,-0.550897 3.665989,0.02501 5.327695,-0.05999 5.797693,-0.296533 1.185573,-0.596688 1.794984,-2.349278 2.222907,-6.392808 0.428362,-4.047667 1.268087,-8.093832 2.664358,-12.838066 4.677189,-15.892072 13.000467,-23.77549 27.783385,-26.315119 7.324399,-1.258293 19.120078,-1.712014 27.019238,-1.039296 13.91884,1.185376 24.08618,6.822314 31.87261,17.670687 5.89834,8.217821 6.77994,9.209321 13.27918,14.934693 4.54672,4.005342 6.93342,6.818071 8.44755,9.955456 2.12191,4.396725 2.79269,7.513997 2.59631,12.065482 -0.27435,6.35824 -2.62908,11.01719 -8.09172,16.00983 -1.6333,1.49278 -2.45005,2.44147 -2.61442,3.03677 -0.1421,0.51465 -0.1441,2.23751 -0.005,4.24812 0.12877,1.8603 0.3108,8.89675 0.4045,15.63657 0.23129,16.63652 -0.13249,22.42481 -2.5506,40.58385 -1.57343,11.81589 -3.78984,25.83778 -4.7696,30.17436 -1.09359,4.84043 -4.83026,8.15041 -10.90874,9.66306 -3.0892,0.76875 -10.21139,0.83584 -14.08828,0.13272 -5.7852,-1.04923 -8.42244,-2.09828 -10.79354,-4.2935 -3.84873,-3.56324 -5.16167,-7.60433 -5.50656,-16.94856 -0.21808,-5.90869 -0.37731,-6.58824 -1.76206,-7.52028 -1.16976,-0.78734 -5.59459,-1.88717 -5.99231,-1.48944 -0.22066,0.22066 -0.31995,2.65127 -0.34875,8.53752 -0.0541,11.06668 -0.35664,13.31466 -2.35126,17.47316 -0.91865,1.91523 -1.48949,2.71224 -2.86251,3.99663 -3.252066,3.04215 -7.66994,5.27182 -12.368609,6.24236 -2.544776,0.52564 -8.078442,0.51319 -10.584832,-0.0238 z M 136.49,118.19285 c 6.3723,-0.99475 11.45714,-2.54124 16.47072,-5.00937 7.48683,-3.68567 11.21445,-8.08187 11.28066,-13.303905 0.12094,-9.538565 -8.87663,-17.953636 -22.32156,-20.876483 -3.67186,-0.798242 -14.01701,-0.862744 -18.47462,-0.115192 -6.20363,1.040364 -16.60647,4.126627 -18.79796,5.576882 -2.81797,1.864844 -4.50783,6.574057 -4.51888,12.59294 -0.0115,6.253418 2.28605,13.138348 5.2837,15.833488 2.8004,2.5178 8.02337,4.59417 14.08016,5.59751 2.86054,0.47386 13.22229,0.2935 16.99778,-0.29587 z"
         id="path1385" />
      <path
         style="fill:#060303;stroke-width:0.263532"
         d="m 79.790987,226.22605 c -5.096024,-0.92223 -8.93508,-2.96996 -12.762145,-6.80724 -2.198841,-2.20471 -2.845819,-3.04852 -3.759306,-4.90304 -0.606857,-1.23201 -1.390987,-3.38359 -1.742509,-4.78129 -0.773086,-3.07389 -1.822105,-9.74332 -2.376388,-15.10855 -0.239012,-2.31352 -0.542885,-4.0677 -0.73447,-4.23989 -0.179731,-0.16154 -1.868444,-0.42681 -3.752694,-0.58949 -11.146626,-0.96237 -18.63213,-5.68889 -21.632061,-13.65897 -2.199824,-5.84439 -3.149953,-15.93212 -2.925656,-31.06235 0.226529,-15.281 1.551882,-28.71159 3.77083,-38.21207 1.415744,-6.06155 4.033961,-9.7079 8.567912,-11.932411 3.512171,-1.723193 4.794903,-1.949214 10.520457,-1.853744 4.654725,0.07761 4.993194,0.05018 5.695456,-0.461552 1.244211,-0.906659 1.682975,-2.183472 2.092482,-6.089174 0.721394,-6.880354 3.136228,-15.828593 5.730078,-21.232975 4.68188,-9.754864 12.111655,-15.567686 22.634507,-17.708529 6.010676,-1.222855 10.327799,-1.575202 19.43819,-1.586471 9.72704,-0.01203 12.64328,0.228112 17.67922,1.455827 6.53317,1.592723 12.34631,4.594294 17.38442,8.97631 1.99825,1.738024 4.31186,4.51442 7.768,9.321806 4.25516,5.918804 5.89824,7.768297 10.39132,11.696753 6.568,5.742622 8.34428,7.809487 10.30217,11.987533 1.76934,3.775671 2.19006,5.750547 2.19663,10.311276 0.005,3.774881 -0.0326,4.064161 -0.84408,6.420911 -1.45948,4.23867 -4.01351,7.93674 -7.41277,10.73321 -2.69388,2.21617 -2.74207,2.39654 -2.34144,8.76427 0.447,7.10457 0.45102,30.14145 0.006,35.08915 -1.0846,12.06223 -3.95337,33.00022 -6.26458,45.72271 -1.08494,5.97228 -1.71152,7.48468 -4.00858,9.6757 -4.84667,4.62294 -13.90678,5.82784 -24.95983,3.31939 -5.35121,-1.21444 -8.56317,-3.59114 -10.62259,-7.86022 -1.50614,-3.12217 -2.10684,-6.42608 -2.3717,-13.04476 -0.28237,-7.05623 -0.28517,-7.06078 -5.11498,-8.33885 -1.86829,-0.49439 -2.36051,-0.54485 -2.63532,-0.27017 -0.2561,0.25599 -0.37585,2.61584 -0.49453,9.746 -0.12502,7.51051 -0.24909,9.83348 -0.61512,11.51648 -1.26731,5.82722 -3.92923,9.27995 -9.450497,12.25808 -5.172693,2.79012 -11.543973,3.79825 -17.356566,2.74634 z m 9.647271,-10.37199 c 1.980405,-0.70244 4.557601,-2.37173 5.885022,-3.81181 l 1.023504,-1.11037 0.181847,-6.31165 c 0.441444,-15.32192 1.347692,-21.55819 3.497849,-24.07017 1.25824,-1.46997 2.77691,-2.13827 4.85706,-2.13736 1.31917,5.2e-4 2.95359,0.3763 7.36157,1.69236 10.52661,3.14286 13.95482,3.84106 18.85979,3.84106 2.84342,0 5.08834,-0.28651 7.42747,-0.94793 0.48344,-0.1367 0.59295,-0.0627 0.59295,0.40063 0,0.76226 -0.91813,2.54116 -2.00091,3.87682 -1.65101,2.0366 -5.41012,3.96927 -8.67168,4.45837 -2.57105,0.38555 -2.94565,1.64162 -2.69664,9.04203 0.15644,4.64925 0.58612,6.53728 1.68434,7.40114 2.89335,2.27591 14.25763,2.87644 17.98246,0.95026 0.44487,-0.23006 0.99824,-0.78451 1.22972,-1.23213 0.91022,-1.76017 5.27884,-30.90684 6.63104,-44.24111 0.6503,-6.4128 0.70917,-38.2153 0.0719,-38.85254 -0.35198,-0.35197 -0.59975,-0.32127 -2.24002,0.27749 -2.96003,1.08053 -9.49847,2.66447 -13.59957,3.2945 -5.08855,0.78173 -14.88063,0.85624 -19.47318,0.14817 -8.52025,-1.31364 -15.11096,-4.14181 -19.672843,-8.44191 -3.749726,-3.53455 -5.565289,-6.90845 -7.188717,-13.35896 -2.50318,-9.9461 -1.396261,-19.123579 3.136391,-26.003825 1.711827,-2.598437 3.665148,-4.529608 5.52961,-5.466908 1.909909,-0.960146 10.300149,-3.761683 14.213719,-4.746013 8.71153,-2.191109 17.06161,-2.970938 23.99407,-2.24085 1.7478,0.184071 2.57054,0.177881 2.76708,-0.02082 0.41545,-0.420027 -4.48568,-5.077138 -7.32017,-6.955694 -3.82647,-2.535998 -8.24213,-4.201519 -12.95559,-4.886651 -3.18958,-0.463626 -14.37204,-0.632179 -19.2378,-0.28997 -8.768418,0.616682 -12.405158,1.367872 -16.259282,3.358449 -6.340065,3.274515 -10.134025,9.312506 -12.873026,20.48709 -4.416783,18.019585 -6.211593,61.480942 -4.065917,98.456202 0.871586,15.01958 2.465851,27.7735 3.836139,30.68866 1.251656,2.66279 6.063013,6.21937 9.635422,7.12256 2.107831,0.53291 5.802677,0.35931 7.856372,-0.36912 z M 57.628494,179.4002 c 0.170345,-0.21378 0.185542,-1.76319 0.0433,-4.41415 -1.015745,-18.93054 -0.837817,-45.10972 0.443199,-65.20956 0.400091,-6.27764 0.397777,-6.5893 -0.05134,-6.9177 -0.650575,-0.47572 -6.04463,-0.44448 -8.371326,0.0485 -2.087517,0.44228 -3.850827,1.38729 -4.629805,2.48127 -2.048923,2.87744 -4.191097,18.99876 -4.760072,35.82279 -0.53967,15.95747 0.655574,28.80963 3.062413,32.92936 1.456554,2.49316 5.918037,4.68491 10.771546,5.29166 2.701823,0.33775 3.201017,0.33316 3.492082,-0.0321 z M 136.49,118.19285 c 6.3723,-0.99475 11.45714,-2.54124 16.47072,-5.00937 7.48683,-3.68567 11.21445,-8.08187 11.28066,-13.303905 0.12094,-9.538565 -8.87663,-17.953636 -22.32156,-20.876483 -3.67186,-0.798242 -14.01701,-0.862744 -18.47462,-0.115192 -6.20363,1.040364 -16.60647,4.126627 -18.79796,5.576882 -2.81797,1.864844 -4.50783,6.574057 -4.51888,12.59294 -0.0115,6.253418 2.28605,13.138348 5.2837,15.833488 2.8004,2.5178 8.02337,4.59417 14.08016,5.59751 2.86054,0.47386 13.22229,0.2935 16.99778,-0.29587 z"
         id="path1383" />
    </g>
  </g>
</svg>
